<svg xmlns="http://www.w3.org/2000/svg" width="16" height="18" fill="none">
  <path fill="#00599C"
    d="M15.31 13.375c.117-.211.19-.45.19-.663V5.288c0-.214-.073-.452-.19-.663L8 9l7.31 4.375Z" />
  <path fill="#004482"
    d="m8.65 17.59 6.2-3.712c.179-.107.341-.292.459-.503L7.999 9 .69 13.375c.118.211.28.396.46.503l6.2 3.712c.357.213.942.213 1.3 0Z" />
  <path fill="#659AD2"
    d="M15.31 4.625a1.358 1.358 0 0 0-.46-.503L8.65.41c-.358-.213-.942-.213-1.3 0l-6.2 3.712C.792 4.336.5 4.861.5 5.288v7.424c0 .213.073.452.19.663L8 9l7.31-4.375Z" />
  <path fill="#fff"
    d="M8.024 14C5.254 14 3 11.757 3 9s2.254-5 5.024-5c1.755 0 3.393.922 4.3 2.414l-2.151 1.29A2.525 2.525 0 0 0 8.024 6.5 2.509 2.509 0 0 0 5.512 9c0 1.379 1.127 2.5 2.512 2.5.874 0 1.69-.457 2.145-1.198l2.156 1.283A5.048 5.048 0 0 1 8.025 14Z" />
  <path fill="#fff"
    d="M12.375 8.684h-.625v-.621h-.625v.621H10.5v.622h.625v.622h.625v-.622h.625v-.622ZM14.875 8.687h-.625v-.624h-.625v.624H13v.625h.625v.626h.625v-.626h.625v-.625Z" />
</svg>