<svg xmlns="http://www.w3.org/2000/svg" width="20" height="9" fill="none">
  <path fill="#00ACD7" fill-rule="evenodd"
    d="m11.324 2.778-.751.208c-.136.038-.166.047-.292-.106-.15-.18-.261-.297-.472-.403-.634-.328-1.247-.233-1.82.16-.683.465-1.035 1.153-1.025 2.011.01.847.563 1.546 1.357 1.663.684.095 1.257-.16 1.709-.7.09-.116.17-.243.271-.391h-1.94c-.21 0-.261-.138-.19-.318.13-.328.371-.879.512-1.154.03-.063.1-.17.251-.17h3.235c.145-.484.38-.943.695-1.376.734-1.017 1.619-1.546 2.815-1.769 1.025-.19 1.99-.084 2.865.54.794.572 1.286 1.345 1.417 2.362.17 1.43-.221 2.594-1.156 3.59a4.54 4.54 0 0 1-2.412 1.355 5.313 5.313 0 0 1-.533.067c-.091.009-.182.017-.271.028-.915-.021-1.75-.297-2.453-.932a3.353 3.353 0 0 1-1.005-1.649 4.5 4.5 0 0 1-.422.718c-.724 1.006-1.67 1.63-2.865 1.8-.985.137-1.9-.064-2.704-.7-.744-.592-1.166-1.376-1.277-2.35-.13-1.154.191-2.192.855-3.102C6.43 1.175 7.376.55 8.532.328c.945-.18 1.85-.064 2.664.519.533.37.915.879 1.166 1.493.06.095.02.148-.1.18-.353.094-.643.175-.938.258Zm6.65 1.206.007.113c-.05.91-.483 1.588-1.277 2.023-.532.285-1.085.317-1.638.063-.724-.339-1.106-1.175-.925-2.001.221-.996.824-1.62 1.76-1.843.954-.233 1.869.36 2.05 1.409.014.075.018.15.023.236Z"
    clip-rule="evenodd" />
  <path fill="#00ACD7"
    d="M1.528 2.657c-.02.032-.01.053.03.053l2.994.011c.03 0 .08-.032.1-.064l.171-.275c.02-.032.01-.063-.03-.063H1.85c-.04 0-.09.02-.111.053l-.211.285ZM.01 3.632c-.02.031-.01.053.03.053l4.11-.011c.04 0 .08-.021.09-.064l.08-.254c.01-.032-.01-.063-.05-.063H.332c-.04 0-.09.02-.11.053l-.212.286ZM2.443 4.595c-.02.032-.01.064.03.064l1.546.01c.03 0 .07-.031.07-.074l.02-.254c0-.042-.02-.074-.06-.074H2.684c-.04 0-.08.032-.1.063l-.141.265Z" />
</svg>