<svg width="48" height="48" viewBox="0 0 48 48" fill="none" xmlns="http://www.w3.org/2000/svg">
  <rect width="48" height="48" rx="12" fill="#F7DF1E"/>
  <path d="M26 14h6v20.8c0 4.24-2.16 7.2-6.8 7.2-3.2 0-5.52-1.6-6.64-4.08l4.64-2.64c.48 1.12 1.28 1.76 2.16 1.76 1.04 0 1.68-.64 1.68-2V14Zm-13.92 19.04c1.12 1.92 2.64 3.52 5.36 3.52 2.24 0 3.52-1.12 3.52-2.64 0-1.84-1.44-2.48-3.84-3.52l-1.36-.56C12 28.4 9.6 26.72 9.6 23.36c0-3.2 2.56-5.6 6.32-5.6 2.72 0 4.72.96 6.16 3.44l-4.48 2.72c-.56-.96-1.2-1.36-1.68-1.36-.8 0-1.36.56-1.36 1.36 0 .96.56 1.36 1.84 1.92l1.36.56c4.64 1.92 7.04 3.44 7.04 7.44 0 4.32-3.44 6.72-7.92 6.72-4.48 0-7.36-2.16-8.88-5.04l4.08-2.96Z" fill="#111827"/>
</svg>
