<svg xmlns="http://www.w3.org/2000/svg" width="18" height="18" fill="none">
  <path fill="url(#a)" fill-rule="evenodd"
    d="M7.135.25C5.762.25 4.65 1.328 4.65 2.657v1.667h4.303v.463H2.736C1.363 4.787.25 5.865.25 7.194v3.612c0 1.33 1.113 2.407 2.486 2.407h1.435v-2.037c0-1.33 1.113-2.407 2.486-2.407h4.59c1.162 0 2.104-.913 2.104-2.038V2.657c0-1.33-1.113-2.407-2.486-2.407h-3.73Zm-.574 2.963c.476 0 .861-.373.861-.833a.847.847 0 0 0-.86-.834.847.847 0 0 0-.861.834c0 .46.385.833.86.833Z"
    clip-rule="evenodd" />
  <path fill="url(#b)" fill-rule="evenodd"
    d="M10.864 17.75c1.373 0 2.487-1.078 2.487-2.407v-1.667H9.047v-.463h6.216c1.373 0 2.487-1.078 2.487-2.407V7.195c0-1.33-1.114-2.408-2.487-2.408H13.83v2.037c0 1.33-1.113 2.408-2.487 2.408h-4.59c-1.162 0-2.104.912-2.104 2.037v4.074c0 1.33 1.114 2.407 2.487 2.407h3.73Zm.574-2.963a.847.847 0 0 0-.86.833c0 .46.385.834.86.834s.86-.373.86-.834a.847.847 0 0 0-.86-.833Z"
    clip-rule="evenodd" />
  <defs>
    <linearGradient id="a" x1="6.801" x2="6.801" y1=".25" y2="13.213" gradientUnits="userSpaceOnUse">
      <stop stop-color="#327EBD" />
      <stop offset="1" stop-color="#1565A7" />
    </linearGradient>
    <linearGradient id="b" x1="11.199" x2="11.199" y1="4.787" y2="17.75"
      gradientUnits="userSpaceOnUse">
      <stop stop-color="#FFDA4B" />
      <stop offset="1" stop-color="#F9C600" />
    </linearGradient>
  </defs>
</svg>